<svg xmlns="http://www.w3.org/2000/svg" viewBox="0 0 230 30">
  <path fill="#FFE392" d="M164.4226723-.3100739c2.2450533-.002405 4.4900867-.0077293 6.735134-.0132904 3.5558676-.0069062 7.111507-.0009938 10.6673432.0150319 1.9214298.0072579 3.842885.006408 5.764328.0052166 20.8799338.1659213 20.8799338.1659213 25.2731171 3.8761596L214 5c-7.6447359 3.0315332-14.814234 3.6623226-23 4l3.515625.3671875C219.634005 12.0374637 219.634005 12.0374637 229 16v2l-2.4632263.0110474c-64.9537787.3184974-130.3044345 1.0797081-194.7516174 9.9772338l-3.3254395.454834c-1.9603894.27447-3.918929.5627802-5.8745117.869629l-2.4992676.3669433-2.1235352.3354492C15.5300693 29.9963753 14.0775128 29.2146443 12 28v-3l-3.875.125C5.9453125 25.1953125 5.9453125 25.1953125 4 25l-2-2 1-2H1c-.625-2.375-.625-2.375-1-5 5.6354258-5.6354258 17.2025833-6.3235604 24.9296875-7.5039063l2.5077667-.3875732c45.240914-6.8595962 91.291738-8.3767254 136.985218-8.4185944Z"/>
</svg>
