<svg xmlns="http://www.w3.org/2000/svg" viewBox="0 0 147 21">
  <path fill="#FFE392" d="m124.4375.75 2.5251465.1867676c3.6235861.3730903 5.7214916.8043133 8.5725097 3.1413574L137 6c-9.4100228 2.2961276-9.4100228 2.2961276-14 2 2.4636016 1.2318008 4.312296 1.1771172 7.0625 1.3125C136.3885896 9.8285757 142.4131247 11.4131247 147 16l-2.319107-.0134582c-62.1712151-.9130692-62.1712151-.9130692-124.0207367 4.4275207C16.3964312 21.0180391 12.302822 21.1096895 8 21l-1-3-6-1-1-7c7.4034791-5.254082 17.1113868-5.5155197 25.875-6.5625l3.0664063-.3808594C60.1594068-.7606694 93.0374063-1.877234 124.4375.75Z"/>
</svg>
